<mxfile host="app.diagrams.net" modified="2021-09-02T20:46:42.384Z" agent="5.0 (Windows NT 10.0; WOW64) AppleWebKit/537.36 (KHTML, like Gecko) Chrome/93.0.4577.63 Safari/537.36" etag="djTxA0RJw4N7Xgn8Qk6f" version="15.0.6" type="github">
  <diagram id="Fmpa-COd6J_b_fzYQaFG" name="Page-1">
    <mxGraphModel dx="1166" dy="664" grid="1" gridSize="10" guides="1" tooltips="1" connect="1" arrows="1" fold="1" page="1" pageScale="1" pageWidth="1169" pageHeight="827" math="0" shadow="0">
      <root>
        <mxCell id="0" />
        <mxCell id="1" parent="0" />
        <mxCell id="nH8Mw-2NKMJwbhHw3GR2-7" value="" style="rounded=0;whiteSpace=wrap;html=1;" parent="1" vertex="1">
          <mxGeometry x="670" y="454" width="390" height="186" as="geometry" />
        </mxCell>
        <mxCell id="4qManxZfzn34yBkkgIPU-10" value="" style="group" parent="1" vertex="1" connectable="0">
          <mxGeometry x="450" y="40" width="670" height="386" as="geometry" />
        </mxCell>
        <mxCell id="sVx-6X5LhX6Xo08L69X_-13" value="" style="rounded=0;whiteSpace=wrap;html=1;strokeColor=#330000;" parent="4qManxZfzn34yBkkgIPU-10" vertex="1">
          <mxGeometry y="26" width="670" height="360" as="geometry" />
        </mxCell>
        <mxCell id="sVx-6X5LhX6Xo08L69X_-7" value="" style="shape=image;html=1;verticalAlign=top;verticalLabelPosition=bottom;labelBackgroundColor=#ffffff;imageAspect=0;aspect=fixed;image=https://cdn0.iconfinder.com/data/icons/pinpoint-interface/48/location-128.png;dashed=1;strokeColor=#0000FF;" parent="4qManxZfzn34yBkkgIPU-10" vertex="1">
          <mxGeometry x="60" y="76" width="20" height="20" as="geometry" />
        </mxCell>
        <mxCell id="sVx-6X5LhX6Xo08L69X_-8" value="Azure Cloud" style="text;html=1;strokeColor=none;fillColor=none;align=center;verticalAlign=middle;whiteSpace=wrap;rounded=0;dashed=1;" parent="4qManxZfzn34yBkkgIPU-10" vertex="1">
          <mxGeometry x="270" y="356" width="130" height="20" as="geometry" />
        </mxCell>
        <mxCell id="sVx-6X5LhX6Xo08L69X_-2" value="" style="shape=image;verticalLabelPosition=bottom;verticalAlign=top;imageAspect=0;aspect=fixed;image=data:image/png,iVBORw0KGgoAAAANSUhEUgAAASkAAACqCAMAAADGFElyAAAAY1BMVEUAvPL///8AufKl3/kAuvIAt/Gh4Pmc3/lkzPXE7Pts0fZCxvQAvfI1xfQfwvPq9/2P2/hSy/Xw+/6u4vnR7vva8/3h9v30/P5LyfR81fe+6vu25/p00/bV8vzM7/yo4/mJ2fiWfsh5AAALJElEQVR4nO2dbWOrLAyGLQf6qra6tto37f//lcdErVqpRQsRt95fnj1bd4aXECAkwZl9pSZn7AZMRhaTCo+Hw/58Xh0Ox3DstszsJBXt01PgM84e4tyNT/NkVGC2kdperr7IyDgtcc6Ev06PY7XMKlK3uyeFVMcl/FMySuPsIXXcZQOui9KDFnNON/r22ULqHAslTAUs4afULbSDVOozdUy5mHOPSNtoA6m525tTzmpH2crxSZ2HcUJWfE7XzrFJHWMxlBOy8skmwpFJLdSmuy5Wa6Kmjkpq6w0eeDVU7p6ksWOSunzanwqJO0VrRyR1+shC1cUCggXDeKRiTT0KxP2t8faORSp0NYICVsb3NyOR2rpaOWVippcL45DSDypDtTLb5lFIhfo5OcZ71RikIt8IKYcb9fKNQWqj15hXck26j0cgtTYFyuGewWbTk0q1LTglqK7m2k1O6qhhq/da4mys4eSkPJOgMhkzVdSkdka7VDb+lqZaTkzK7NgDGRt/xKQCY/PeQ66hptOSSgzOe6X4wkzbaUmZNuc5KjPOKlJSK+NWCknVD7e2h/MlTdNLcvyUHympmAJUZakOi8DlECiTiTHHv14+WUJQkjoQWCkQg5P4490VTwc/nItNOrhrUZI6mZ/4cnmzJHgR5sD5aaAjmZIUiZVCHJuOP5WxGtSvtJM6nBenZexlitf3eVJ7gWcyUm/E+M+AB9NKKtnFTLBHsBgYUuEu54WDzZy3pbfEgGMvfaRWa1d6dJ7h8ncAi5xHh7jb+yxHE6loJ8dUiLHN+WbL4MvFLmOQCk/iLYaPQzV0S/SM6tNB6m4dBSWJfnb9c1JnzafBdOp3QvgpqSggWnibEOtz7PUhqcSZaodC+WSk5nbNZ73FTkSkrrQjj+ufOZh6PN8npJZUPQpyjbi7uS7Oge5/Wn38fUCKwCcO2yHuB9d/lyJxban7LzDlpcJwUkuToACRcIPTfNWcnrSTUj+gGEzqamTooX/S8YN7mkhncP2klHc1Q0npnvXQ7+B4wf203Hbs8/WTclSjPgaSSrSByia0zBZ56/tPgoiSzkh8A6RUl5/DSEVa2gjHAN56d9nXDwJW5KQU85SGkdJizf3zQXJWQk5KdfgNInXWsuLcSP9telJM7WxrECk9kb/WkFKL+RhC6q5nJWULKa6WdjOAVKhp3rOGlFrI1QBSug44bSGluPfrTyrStZSyhpQag/6ktMUfWkNKGCKlLeXFHlJKy4TepPTFQP12UvrOzO0hpfTgvUnpa6A1pPhJ5TirLyl9TgR7SGFNnYNuUprW5yB7SDlQU8d749LrS2qjr3FWkXKgnkcnq76kNLo6bSMFrDo2yz1JHX41qYxV/DIKtCcpXWUzQHJS5N7hpjh7lSLRk5TOVCp/vmhrftrIvl3+VKOZfCUWyxeiPUnpDJT25zKdNqn0+6iUgJTDuXR51ZOUztNuK0cfSshGYE9SOt+pjRa9EJPkM/ckpbPSgcWkHB58SSmqjUqVVBSC/g6pNqr3pKL9/Br7bh5boVN2k3L4U0PekLrtPPamFPBgWU7KYc3TrS5Sx537PiJ/uGwn5YjGjvk1qX3AzEYnWk+qGQbzilSyMZ64YD+pxkmgnNSWIh5/AqTqFXWkpBaGbHhTEyDliKpOmoRU2JWbqlFTIFUbf21SK5IO5UyEVFXRo0VqQZa3MAlSDi+9Vc+kTnSZMNMg9Vh/PpFaE6YMTYOUIyIZKUpQjr86SCLPrSNVhuw1SBEOPRBjzN+sF5fDqFHWb1XUHqqTGiVbDyL3uQth6Tc8QLLBO/zUwvSZFEUZrdfNgWuwuL++34OuGJ0xSBUB6xUpPXkLHwqcYIJ7y/vPSpo+MwopdmiSIkjXUxfmG/mYtRaNT2rXIPVjY0oxVNiCC+kWq9uIpPItTUnKirH3SpBdK9z4ulhpz65VkjjWSF1tGnsvZCBjW/EPpxWp44TrQ5gXZkEUpIwmFf8CPUiZL3I7bYFD3ZmMlRpTUCsHSUVfUN2C8DMklX5JdYufClJEtVvBeTDRdxLnpEKiJUKcJInpSvKG5OWkfmheNOb7Wr0XeC03J0VUaJNPeJp1IyRl4JIqiXheFUtj4g2lkNSWpu2iyOExdNWTYSEpmvru6DkEz+9iksMPSS1oKuHD1cVg1KlmWr1CUjRly+Es9iwC3c5VotCAfO4j8Y6h4yLgwKs+2ploCn6U/af+i6KMC8y/zxwvLk0dc+PrNfAJlrM5KZILO2CPGfJ8DFZzrbd9UjYzxuE2rDYN/B5ut/iVn30/cNguKtc1IihCdg5r4wM6X3mSTEZusb0Eu17lnbYKGqXMwQH6+D309uNX4MxeFjcUAal62TbjReoDJEWxnMIHhs4La4XKG/ZMCtIHu0gFRVWtjFR+AeTtfE4IVmlw4k5ECnz26IHGU/5H9o3rPYSprdC9O0llM3X2mWWcV1de+YJz4UP10rtRVGA0iEhtHoPOlW80MaUAdzpdpFazwiRhWH15ZyKeXBq16nDZK42dQpuSvxHsDO0OkG2silJpXaQqOGH9lMQzvZ+EP0dk0aOHKcHe0HoseGnF3b+dpIr+X6w5yg/B2Da603DzEwfzfjwMVi7pQJDN7WlaRx7FRe5dpPbF7/FLY7sK/2ty6Y/tdyicLtBjHo4pvOyl2Y85mLHSx9dFqtx4sW1m7AQrJXZmDRW8CZp9Hzzkj+C5GFiVeeO5YOX+6GZdpMqNF1i16PhYr2KUh8GJCYsJOXoz+6XCxPpV+lMILvFq1NrD5eTjQTtXnkVTZfXaDJpbjEh19FaLkEpW36m2TUYrUJkA+0jlJRQc6ZytV+2c3sZUlY/NxqdVSC0qO4Uy1362LUkZnvzwpOGnpn/b8unxx8em21WFFKw66A4p41lJyrBJh8VIUtpzDE+EHU25TRbgXai7M4LGWMSZEr+qk4K3THZ7VLEVB1Jm72rEk4anpebsscLGXUyjqJU/qxdFEUcZKV6t+c2rqMrvGJ428l3Z0ykfjsd8zMN83wxaZo13h94G/KpBaml+KJQqc4yQlMZCZW3Bsz75j/BBL+jfTNoYwY2yKcfmQUoqN7Kbaow65mwtn9VImQyfwsi/50A2WGoCIEzf2YjGDIajNcRL7ni2nY6kpPIU/TU6jjPDtwyNZR087gzO46cMzn4skhTgRSfxleMuJtzXBA+c1ytPl3GwiGbbk5RUkXd+3AVxfE1Dg0PxcXdITsqcdzV3JLVGNwzJbP/SKiCGy6x6kpZ/l5N6vtPDlAGp/kwR52nMpjMIJG9XGMIpzW/fSoWuGb4ps++P/ov1FPzL12rpfwtMverqrRWkzHWqjed5kvftg0O45hwufcT5T0WQJkmSQoY9fBC/Bx9uLAw4C+YJfOzUeXPnRxLHZ1I0R1k9xJWi0uBTpoqpgOpF80pS+0megRsWj2dtUrTpolNRJCMVUW0OpiPRuDO5ylobNRHSRj1dA1zLGTV7uDg5iadboOp5yFblQo6t1hWkjdx2/4uqlGitihukwq9VLyTa9xo1K0tsx26hJZIViX2qVhJO9mpxnZIWHn6ugBN5f34G5L70lsh2/anlH19XCUnNYTmpyV8x/pGY++pGFVmdvOOfHYGctee8LlJUJQWtkwg67rF9Uc8zWk81Z3GwOItvchidpLIheDVcItYucb5+c4tRR93hcOeKv9GxuNikHRd7vyWV6QYu6l9NC2rsBOnLS2aUSWU6plcPU605+1XCMkSOt553Gqc+pEDRdn9J//0upT/ng7QY2Eekvpp9SanrS0pVX1Kq+pJS1ZeUqr6kVPUlpar/EiKvHKdSXhEAAAAASUVORK5CYII=" parent="4qManxZfzn34yBkkgIPU-10" vertex="1">
          <mxGeometry x="19" width="69.88" height="40" as="geometry" />
        </mxCell>
        <mxCell id="sVx-6X5LhX6Xo08L69X_-4" value="" style="rounded=0;whiteSpace=wrap;html=1;dashed=1;strokeColor=#0000FF;" parent="4qManxZfzn34yBkkgIPU-10" vertex="1">
          <mxGeometry x="49" y="66" width="580" height="280" as="geometry" />
        </mxCell>
        <mxCell id="sVx-6X5LhX6Xo08L69X_-5" value="Region: Brazil South" style="text;html=1;strokeColor=none;fillColor=none;align=center;verticalAlign=middle;whiteSpace=wrap;rounded=0;dashed=1;" parent="4qManxZfzn34yBkkgIPU-10" vertex="1">
          <mxGeometry x="70" y="76" width="130" height="20" as="geometry" />
        </mxCell>
        <mxCell id="sVx-6X5LhX6Xo08L69X_-15" value="" style="shape=image;html=1;verticalAlign=top;verticalLabelPosition=bottom;labelBackgroundColor=#ffffff;imageAspect=0;aspect=fixed;image=https://cdn0.iconfinder.com/data/icons/pinpoint-interface/48/location-128.png;strokeColor=#330000;" parent="4qManxZfzn34yBkkgIPU-10" vertex="1">
          <mxGeometry x="52" y="75" width="28" height="28" as="geometry" />
        </mxCell>
        <mxCell id="sVx-6X5LhX6Xo08L69X_-16" value="" style="aspect=fixed;html=1;points=[];align=center;image;fontSize=12;image=img/lib/mscae/Virtual_Machine_2.svg;strokeColor=#330000;" parent="4qManxZfzn34yBkkgIPU-10" vertex="1">
          <mxGeometry x="59" y="254" width="39.13" height="36" as="geometry" />
        </mxCell>
        <mxCell id="sVx-6X5LhX6Xo08L69X_-17" value="VM &lt;br&gt;SFTP" style="text;html=1;strokeColor=none;fillColor=none;align=center;verticalAlign=middle;whiteSpace=wrap;rounded=0;dashed=1;fontStyle=1" parent="4qManxZfzn34yBkkgIPU-10" vertex="1">
          <mxGeometry x="13.569999999999993" y="304" width="130" height="20" as="geometry" />
        </mxCell>
        <mxCell id="sVx-6X5LhX6Xo08L69X_-18" value="" style="shape=image;verticalLabelPosition=bottom;verticalAlign=top;imageAspect=0;aspect=fixed;image=data:image/svg+xml,PHN2ZyB4bWxucz0iaHR0cDovL3d3dy53My5vcmcvMjAwMC9zdmciIHZpZXdCb3g9IjAgMCAxOCAxOCI+PGRlZnM+PGxpbmVhckdyYWRpZW50IGlkPSJhIiB4MT0iLjUiIHkxPSI5Ljc3IiB4Mj0iOSIgeTI9IjkuNzciIGdyYWRpZW50VW5pdHM9InVzZXJTcGFjZU9uVXNlIj48c3RvcCBvZmZzZXQ9IjAiIHN0b3AtY29sb3I9IiMwMDViYTEiLz48c3RvcCBvZmZzZXQ9Ii4wNyIgc3RvcC1jb2xvcj0iIzAwNjBhOSIvPjxzdG9wIG9mZnNldD0iLjM2IiBzdG9wLWNvbG9yPSIjMDA3MWM4Ii8+PHN0b3Agb2Zmc2V0PSIuNTIiIHN0b3AtY29sb3I9IiMwMDc4ZDQiLz48c3RvcCBvZmZzZXQ9Ii42NCIgc3RvcC1jb2xvcj0iIzAwNzRjZCIvPjxzdG9wIG9mZnNldD0iLjgxIiBzdG9wLWNvbG9yPSIjMDA2YWJiIi8+PHN0b3Agb2Zmc2V0PSIuOTkiIHN0b3AtY29sb3I9IiMwMDViYTEiLz48L2xpbmVhckdyYWRpZW50PjwvZGVmcz48cGF0aCBkPSJNMTMuMjUgMTAuNDhWNi41N2EuMTQuMTQgMCAwMC0uMjQtLjFsLTQgNC00LjE2IDQuMTZ2Mi44N2gxMi4wOGEuNTYuNTYgMCAwMC41Ny0uNTdWNi41N2EuMTQuMTQgMCAwMC0uMjQtLjF6IiBmaWxsPSIjMDA1YmExIi8+PHBhdGggZD0iTTQuNzUgMy41OEMyLjQgMy41OC41IDIuODkuNSAydjE0LjkzYS41Ni41NiAwIDAwLjU3LjU3SDlWMmMwIC44OS0xLjkgMS41OC00LjI1IDEuNTh6IiBmaWxsPSJ1cmwoI2EpIi8+PHJlY3QgeD0iMTIuOTEiIHk9IjEyLjk3IiB3aWR0aD0iMi4yNyIgaGVpZ2h0PSIyLjI3IiByeD0iLjI4IiBmaWxsPSIjZmZmIi8+PHJlY3QgeD0iOC45NyIgeT0iMTIuOTciIHdpZHRoPSIyLjI3IiBoZWlnaHQ9IjIuMjciIHJ4PSIuMjgiIGZpbGw9IiNmZmYiLz48cmVjdCB4PSI1LjAzIiB5PSIxMi45NyIgd2lkdGg9IjIuMjciIGhlaWdodD0iMi4yNyIgcng9Ii4yOCIgZmlsbD0iI2ZmZiIvPjxwYXRoIGQ9Ik05IDJjMCAuODUtMS45IDEuNTQtNC4yNSAxLjU0Uy41IDIuODkuNSAyIDIuNC41IDQuNzUuNSA5IDEuMTkgOSAyIiBmaWxsPSIjZWFlYWVhIi8+PHBhdGggZD0iTTggMS45MWMwIC41NS0xLjQ2IDEtMy4yNiAxcy0zLjI2LS40My0zLjI2LTFTMyAuOTQgNC43NS45NCA4IDEuMzcgOCAxLjkxIiBmaWxsPSIjNTBlNmZmIi8+PHBhdGggZD0iTTQuNzUgMi4xNGE4LjA3IDguMDcgMCAwMC0yLjU4LjM3IDcuNjQgNy42NCAwIDAwMi41OC4zOCA3LjY0IDcuNjQgMCAwMDIuNTgtLjM4IDguMDcgOC4wNyAwIDAwLTIuNTgtLjM3eiIgZmlsbD0iIzE5OGFiMyIvPjwvc3ZnPg==;strokeColor=#330000;" parent="4qManxZfzn34yBkkgIPU-10" vertex="1">
          <mxGeometry x="130" y="116" width="48" height="48" as="geometry" />
        </mxCell>
        <mxCell id="_487zrJsyZNWQ4AbuC8U-1" value="" style="rounded=1;whiteSpace=wrap;html=1;rotation=-90;strokeColor=#BFBFBF;" parent="4qManxZfzn34yBkkgIPU-10" vertex="1">
          <mxGeometry x="250" y="196" width="75" height="170" as="geometry" />
        </mxCell>
        <mxCell id="4qManxZfzn34yBkkgIPU-2" style="edgeStyle=orthogonalEdgeStyle;rounded=0;orthogonalLoop=1;jettySize=auto;html=1;entryX=0.25;entryY=0;entryDx=0;entryDy=0;" parent="4qManxZfzn34yBkkgIPU-10" source="sVx-6X5LhX6Xo08L69X_-16" target="_487zrJsyZNWQ4AbuC8U-1" edge="1">
          <mxGeometry relative="1" as="geometry">
            <Array as="points">
              <mxPoint x="79" y="296" />
              <mxPoint x="150" y="296" />
              <mxPoint x="150" y="300" />
            </Array>
          </mxGeometry>
        </mxCell>
        <mxCell id="sVx-6X5LhX6Xo08L69X_-21" value="" style="aspect=fixed;html=1;points=[];align=center;image;fontSize=12;image=img/lib/mscae/Data_Lake.svg;strokeColor=#330000;" parent="4qManxZfzn34yBkkgIPU-10" vertex="1">
          <mxGeometry x="210" y="213.5" width="38" height="50" as="geometry" />
        </mxCell>
        <mxCell id="_487zrJsyZNWQ4AbuC8U-2" value="ADLS&lt;br&gt;Gen 2" style="text;html=1;strokeColor=none;fillColor=none;align=center;verticalAlign=middle;whiteSpace=wrap;rounded=0;dashed=1;fontStyle=1" parent="4qManxZfzn34yBkkgIPU-10" vertex="1">
          <mxGeometry x="210" y="213.5" width="130" height="20" as="geometry" />
        </mxCell>
        <mxCell id="_487zrJsyZNWQ4AbuC8U-4" value="&lt;div style=&quot;text-align: left&quot;&gt;&lt;span&gt;/rawdata&lt;/span&gt;&lt;/div&gt;&amp;nbsp; &amp;nbsp; &amp;nbsp;/adobeanalytics" style="text;html=1;strokeColor=none;fillColor=none;align=center;verticalAlign=middle;whiteSpace=wrap;rounded=0;dashed=1;fontStyle=1" parent="4qManxZfzn34yBkkgIPU-10" vertex="1">
          <mxGeometry x="240" y="277" width="130" height="20" as="geometry" />
        </mxCell>
        <mxCell id="sVx-6X5LhX6Xo08L69X_-20" value="" style="verticalLabelPosition=bottom;html=1;verticalAlign=top;align=center;strokeColor=none;fillColor=#00BEF2;shape=mxgraph.azure.storage_blob;" parent="4qManxZfzn34yBkkgIPU-10" vertex="1">
          <mxGeometry x="218" y="277" width="30" height="29" as="geometry" />
        </mxCell>
        <mxCell id="4qManxZfzn34yBkkgIPU-3" style="edgeStyle=orthogonalEdgeStyle;rounded=0;orthogonalLoop=1;jettySize=auto;html=1;entryX=0.5;entryY=0;entryDx=0;entryDy=0;" parent="4qManxZfzn34yBkkgIPU-10" source="4qManxZfzn34yBkkgIPU-1" target="_487zrJsyZNWQ4AbuC8U-1" edge="1">
          <mxGeometry relative="1" as="geometry" />
        </mxCell>
        <mxCell id="4qManxZfzn34yBkkgIPU-1" value="ADF" style="text;html=1;strokeColor=none;fillColor=none;align=center;verticalAlign=middle;whiteSpace=wrap;rounded=0;dashed=1;fontStyle=1" parent="4qManxZfzn34yBkkgIPU-10" vertex="1">
          <mxGeometry x="88" y="166" width="130" height="20" as="geometry" />
        </mxCell>
        <mxCell id="4qManxZfzn34yBkkgIPU-8" value="source" style="text;html=1;strokeColor=none;fillColor=none;align=center;verticalAlign=middle;whiteSpace=wrap;rounded=0;rotation=-90;" parent="4qManxZfzn34yBkkgIPU-10" vertex="1">
          <mxGeometry x="120" y="213.5" width="40" height="20" as="geometry" />
        </mxCell>
        <mxCell id="nH8Mw-2NKMJwbhHw3GR2-35" value="sink" style="text;html=1;strokeColor=none;fillColor=none;align=center;verticalAlign=middle;whiteSpace=wrap;rounded=0;rotation=0;" parent="4qManxZfzn34yBkkgIPU-10" vertex="1">
          <mxGeometry x="285" y="110" width="40" height="20" as="geometry" />
        </mxCell>
        <mxCell id="Z8HmAOv_Kz-zQU-TGzTw-2" value="" style="rounded=0;whiteSpace=wrap;html=1;" parent="1" vertex="1">
          <mxGeometry x="140" y="80" width="170" height="160" as="geometry" />
        </mxCell>
        <mxCell id="Z8HmAOv_Kz-zQU-TGzTw-4" value="" style="shape=image;verticalLabelPosition=bottom;verticalAlign=top;imageAspect=0;aspect=fixed;image=data:image/png,iVBORw0KGgoAAAANSUhEUgAAAkQAAADyCAMAAACbMiopAAAABGdBTUEAALGPC/xhBQAAAAFzUkdCAK7OHOkAAAMjaVRYdFhNTDpjb20uYWRvYmUueG1wAAAAAAA8P3hwYWNrZXQgYmVnaW49Iu+7vyIgaWQ9Ilc1TTBNcENlaGlIenJlU3pOVGN6a2M5ZCI/PiA8eDp4bXBtZXRhIHhtbG5zOng9ImFkb2JlOm5zOm1ldGEvIiB4OnhtcHRrPSJBZG9iZSBYTVAgQ29yZSA1LjUtYzAyMSA3OS4xNTQ5MTEsIDIwMTMvMTAvMjktMTE6NDc6MTYgICAgICAgICI+IDxyZGY6UkRGIHhtbG5zOnJkZj0iaHR0cDovL3d3dy53My5vcmcvMTk5OS8wMi8yMi1yZGYtc3ludGF4LW5zIyI+IDxyZGY6RGVzY3JpcHRpb24gcmRmOmFib3V0PSIiIHhtbG5zOnhtcD0iaHR0cDovL25zLmFkb2JlLmNvbS94YXAvMS4wLyIgeG1sbnM6eG1wTU09Imh0dHA6Ly9ucy5hZG9iZS5jb20veGFwLzEuMC9tbS8iIHhtbG5zOnN0UmVmPSJodHRwOi8vbnMuYWRvYmUuY29tL3hhcC8xLjAvc1R5cGUvUmVzb3VyY2VSZWYjIiB4bXA6Q3JlYXRvclRvb2w9IkFkb2JlIFBob3Rvc2hvcCBDQyAoTWFjaW50b3NoKSIgeG1wTU06SW5zdGFuY2VJRD0ieG1wLmlpZDo2Q0JDQzAzMEJCQjcxMUU0QThCNDg4MEUyRTU4RDg2QSIgeG1wTU06RG9jdW1lbnRJRD0ieG1wLmRpZDo2Q0JDQzAzMUJCQjcxMUU0QThCNDg4MEUyRTU4RDg2QSI+IDx4bXBNTTpEZXJpdmVkRnJvbSBzdFJlZjppbnN0YW5jZUlEPSJ4bXAuaWlkOkQyMDRFMEY1QkJCNDExRTRBOEI0ODgwRTJFNThEODZBIiBzdFJlZjpkb2N1bWVudElEPSJ4bXAuZGlkOkQyMDRFMEY2QkJCNDExRTRBOEI0ODgwRTJFNThEODZBIi8+IDwvcmRmOkRlc2NyaXB0aW9uPiA8L3JkZjpSREY+IDwveDp4bXBtZXRhPiA8P3hwYWNrZXQgZW5kPSJyIj8+KR/sDgAAABl0RVh0U29mdHdhcmUAQWRvYmUgSW1hZ2VSZWFkeXHJZTwAAAMAUExURUxpcRggGBwoHBspHA4PDh0qHhwoHBkjGhMTEhsoHRIUERITEhwpHRQUExQUEx0pHhMTEhESEBEREREREBMTEhwpHRISERAQDxMTEhMTEhIUDxIVERMTEhonGxMTEhERDxEUESpAGhsoHBEREBMWExARDxIVEBMWEhQUEhQUExEREBEREBMTEhEREBETEREREBEREBEREBERDxARDxETEBQUExEREA8PDhMTEnm7QxMTEhAREBMTEnW4PnS3PxspHBMTEg8PDhIUERATD3e5QBISEXi6QhQUExISERISEXi6QxISERITEXCwPXe5QRQUEw8RDhsnHHi7QBESEG6xO3i7QhMTEnm7Q3m7QnO3PRMTEg8QDhEREHC1Onm7Qnm7QxETEXm8QhMTEna4QXa4QBwpHRESEBwoHRwpHXi7QXm7Q3zAQ3i6Qni6QXm7Qna3QWetNnq9QRESEHa4QHi8QRMTEh0qHnm7QXO1P3O4P3i6QhMTEhknG3e4QHm6QXO2PXq8QmywO3m7Q3i6Qnm7Qni6Qna3QRkmGnm7Q3a4QBonGx0rHnu9RHC1O2WtNW+zP3e6QBsoHHm7Q3y+RBwoHR0qHhwpHWKrNGisNx0qHhknGn7CRG+yPWKlNxsoHHa6QV2YNXW4PxklGhwpHYPHR2eyN2evNxkmGlabLYHCSHW4P2SvOH7ERVWLLk17KHW2QR0rHhklGmmrOlSMLW2uPYDDRmGXNHOzQGqmOmqrPWyyOhwqHYHLRkJwJGGaNY3ZToTFSF6QNGKXNT9kIZHPUSIvIiAvISExIx8tIDtdHoXPSozXTWeiOYfOSxgYFiEwIyAvIojVSSEvIiU2Jh0rHxokGyQ4HhQUEx0qHnm7QxUVFBYWFB0rHnq8Q3q7RB4sH3u9RBcXFRQUFBUVEx0qH3m8Q3e5Qn2+Rni6Qnu+RHi7QhwpHXu8Rn/DRn3ARB8sIIC/SIDGRyEvIn3BRYPLSXa2QYTBSYfQS4/ZT4vFTRgYFxgYFRgYF3e7RCYvKBskGwwLO7QAAADXdFJOUwANNTAF44sH5GMekFr1/eq4In0ur5Gby8XQGBLgucJVKQK8Wj9DChXn8oaCsF4mi7RyaW43+5876vLVUKsnGbrIRw8aIZaH7aej7L1mBDv5K3UzSxSs2fbFXtwzdQfL/GLlzJp50XnEmS3VQt+Q2WUeWTGyTbOkU4ugf7deEXQJtlWilcBu5KzQR7PN7g1Kqc+DvPp8+W09M/FKZW0r3vdNu6bXhnplPFfhxXPRPCXSUlaXctjunPOqh7n1t1B+uqWQZDTW8tjB6w/X6MD16977meP7Yuo9wCAwvgAAIABJREFUeNrsXXtQFPcdPzrMQKDYKJRBoCCjogcRqiJ4ggTD64ICRh53oIAIRnk/1KJSEXkkMCM60U7HNlpNjIlWWzumSUybJp1M/2k7nbR/LbfnLnuHx93pnUBQozPJTG+ft3u3d8fJ3bELv8+MIstv9/dzv5/7vn8/JBJf4WRmUVdFT17d2XMDyuqhxtbWoWrlwLmyvpb6to6mnBEJAIATlBa1Hb2rrL2sQhCVCjGq2MAsl1BUVVNQfffO4HAmeFkAdsg8c61sSKZSGacNGPZA5RAIOmGemVApWsvyTuWA1wZAY+v1FqVCb6EOonIDqKlmqO/DC+D1AYwMH63Wmd1iDwsP9FhrXRewbYvahrWV1SI65EUpRBk4RHGuvgG8zMXJoIpDChRDVR6ATqVS9mwFr3SRofDKWdlsfZ/ZEmng4gnwYhcPGvKazUZH1kmH/0X9qVHICgoKZIqaGjo2c+ppF/QXgZe7ONDV+8BkcsQEw4xR1jzQl9fTdripYWtOZuaJkZHSzJychqLDFYN5db2tBRal48iJQjBV9SDIRi54nLzYiOp0PASYmJ6ZKBjqO37lQqnzcK5heLBOWevIzunQ2rx28JoXMtrzankZZLl2686HRbP3aap2dfRXKxCMTyfpFP27wKtesPFYi0XsqF2ErlMNtXS9SGyVOZz3+xrEPkWJIKo+QKMFidI8nngMwwoODc4lyZNT0fcWZuSxbH0gdbTwfKHjp200BoqgqKysonTOj646U1eLoLYpS/SHOlBbW1ioaLY1OjPG855gEEXRw8dOG+19o+OF4M0vGDQNoIitJ337pmeDqNKvv7Bz2ZHmDvDyF4g//anZJi2E1ZQd9sJEu/plUxh3IuN7oMy/ENB2enqCq4RkR73lrZTebOZG/QbMmAdEIHZs7cUQdo+ZDmnuKfXifIUVShsXG731ByAGUeNmDWLjpQxWeXvOU0qUG/IbW6qAJESLnHNTXGeotscn4uyo5mQgMX0rKMyKFR0yjigRRb3PiqMVreypDfqn14A4xIjCOk6JA9XXtfty9mvnOYEaNgBSj+LDpUaUU84a8LV7m3MMM1rVEYopuoBQxGbKWB61wWiWtc3DGpqGOFnsx18CsYgKR9npGmzi7jxtyPhymhOllZ0EkhENRv6iYpUgkBun5m0lu5QoO3/dCkr7oonsb5h1LGekb14bVuuNmIFZjGnqDBCPKFBUwIqLEEXFfC/nNjtKRNuAgESA649ZH32dACLrwjqWccWMx4GIBI+LT6x6CJsSRvWzwsTuEjkGhCRw1JsfMTV77PIpgayqgZW0QoxlQEyCRh5LWNiQcHY2nzykNzJGFukFghIwWth1jjJBNaceZ1u0c0BUgkU/Kyp7dFRgi/v6MSv/qYwD0hK8HsLMg4JbXpOCpYwGBPweN2TI5fKM4Bfjeawcvzn1NbH6Q9ZPOjJxRYALvNTMMrYC9ouyIK1WC0P+L3SzHL8ZgpeKNC4zsTbrCLMJrLSRZW+FG6OFQRbAgS9GomD8ZmhJkCg5dFFvlY9MqJuYR6qt2lJ/DJBIYOiycggtEO6hZVVKFte9mgn1S0vBkbYbkGi2uPCc+YibagXdQ/ieNaE+5c062gaIwipAotmh/TPmA64rEHgfqpLx3RDVsPemSVCTHFK/Dkg0KxT+Q8/UOmRCP4CzsNrqXX/nvcXKKRJBIfGARLNBL2PL0BrhHwx0spHJF5nfivfSJHFraXMGrQQkmgU+Z5pQDU/FsMHrxA26WWXC+IWX5iihFREEbwckco3DzIH4yNPr4nDhLjMd/MYPvDPFKxqLKMsDcTZA2YBErpD9eIauj+vfFcmai57TukhnvuKNCaKKtRZRrksk6LAekMgV/mWiOaRrEc2iO5h91gZzuxeev2McD8wCVuFGDd4CSOQC/bRleDL9lYiWfe05E+hXe+HxWTh7oiUBm2CcD6GARE5x5RktjOk/i4r8f2fcIr3nM9dLcUFqciWSlwlVlAxI5Az//IyJzJ79UWRmWEWZYVTn8dPUlhHWbLVEshcn0XggIJEzfGV+Qoc5YtvqHvT4EfVL03T/9nQPZiXOgs1xuIMNUXRyJ7JbXCRqo22CYeoDidjQNcMkrj/17JPTYIsm0oTj/zwy69LHmp3b0lfGluxeI0mFnZHIL2l1emz6qqX+TklE9BPFBa0qiY3dtsLP9eSdloElofPRynbiPJ37xW5LxId+mkVPzE0efXAuzKiflfBsSh/x6bkRUrpM0l3uWBOteLN7MzlsSaV8b5RjEkkkoRvDKjeRYzd373HWpNaZGENNnv/yHp+rsENM2fV5uwhJJGmlPwO6Wk8+1h8XCbyWaG/1C9G6LH2EBltrJPidsCMSpWVAMDRODbN8zU8OckAi6QZi6Djz0OLwJAezp4RZp9ZC2pDgKJ/K4BRjzLB3xcghSQNT0Dd5cltBupqKzXDICa30suPRkbnQOGQPexLFh0OwljNGC0s3OtBE9s8r5s95JtvMrtUGbvOhCKo+oTaZGabPSsSJQZpFHo3Qfk7E9WksRsFQpKPBsZtZglbDjkkUugXmoRos5yURNJuhFrwWQ02J92XD9MC9vpPAnaf0ryr7j0DO/ckOdfcOJV3+wIY8tooo3BOBo2nblg87K30kqq1ilgZGB0odkSitmJLxeH5ERkZMNESLfHucQxJZiFEMMeSA4CN2TvoWNUle6fbc5NywQGqcJtZXEttqoCoHhmd/EwaHPvrJw4/cvCXHzDRCeez0ko147RViEozhxLfLHcRSGtqdlu9NWeMfF7Bm9zp5CA+JkjapSQN2JJ0IofxTkqUwHzUoEqnhzfL123YnLe3clhhB00gdbjN9FsmhtRtJRRkQm0UaTLWv3OsBPXXIublXGBz61djY2Ohv3bzpYzrjrjvtqWTRPkIynfS3qwmxwDv59RDpRBcvi3SebPSPpsRdwtK7cpIb6kQeEkWsZMX1qyMoo6VJ5/pD5NVuliudQFxSR/hGZGdMlEeEni8VAoWWvjo5iuNPbt536xHtW3uo+pFESLvceiEQ91zHE3iGlnxPsiCCGzll2JMoldBYcCW3q4SUOAyvsCURvMQm45NAaa189kND+fqdkok1aUp8IrQbTFO1II6N+uVfxwgOjX7rpld4iU5TYN9FemQliYS8lrHEQqgintJHfAhJgjCb6/aaqJPUJCG2nUmvk2onxj46s/2/JJB2U7OHbcyIeaQ2qcjlRDiZ5QuhfUxXwZFGAVDI/+AkzqHJyYej9+6/4d69/6P7wx95JsYkDA/M0i27SXtmv+sjlzRR+yQuSRRDcIjH311LapgUOxLZOTXdpAe/1uqGpxBXNOtsBhLtK9B4kvelVvjJD5QewgTwu6B+dNVCobGxqy9dtZi0scl33Lo5nqkhmz1xLGgaLgM1hxjluKQ1qXaxJMmh7yNdkmgFGZbxOCpkQpwdvDsiUeQS0tuxJoHIDFa03TPLcdLDe7wvth7KqzZgAvCqLR61hTujv4iXZH+DK6R7P3Xr9os0iUye+L+Ew7ZWgzQlWmmAbZqPsDCaRIlLEgWTdONLApK57mI/lySi3Coo2GpMiYcus08/EjmJV7yfZ5Tp6COqM+ebQkGERz3535eI5Nl+wjE66NYTmun9jNjcVZE/EXjDHBnuJC2JjTEi94OM85TV7EhUqXbgVVkkTuab012TKAXiGs8SMpXUaa/diB9s8brg6umCh/nz+ebQj39j4dC9yQOUDY8/cB/3rt925xHDzEaDuR9+FUtonRjuRSKlp+62sXukU5wqcUmiJNLxyeWbj0wgqINdk0hCpBLhEDqeTyZnkfCzDc7387Yioqv3qGKef5NY3MHRexYOjVndoDhcMT2cfNWd032YYx7QOe+aI0oetlunYwlf2yZiWkZmD2Ndk2gd6fis45uPbFiCts+CRGGkQqRVz3Zch2l5rNYOMvsZ6WXR3aRzK2j9PHvU+8fuWyj0O07T19vfWnTR2AE3tiUW0SQyHZrjgqKIyqf2zR0cJJCWhFssDSPSR3wHCdmSiNqRncI743KIXWRxRiIqq0R7VpWEIQyM4SIiq3yJb0hUSzeWyub3WMY3CDU0+r5NZu193Em6t9+NlgYlxSKToX1uK9qg4S19kl+5sfxyghrRca5JlErmD7OdqD5plGsSrSdjPMp9WiN1UKalvkq93KDWRR8Ri/bMJ4WyfzZ5H88N/druJweJxOM3Qe6rIqR/bmvap4Ycg5NZDiCrnXxJvf+zd+1BUZ1XfEEeAqIgYqKg7EYeKuID8AWkjTAWEB1ZifiMolGXRpMmROlMgjWxWhI2nalGcDAztMFm7EymqUyatqMxk05HS2c6NpOa2ctl4YIsFl3N1Q1p/4h/dO/32L27e+/e9z4y90wm47Df3r2753e/8/qd8/mD6BgkjHFrdRXcX9KFQbQRuE9jyH4utQUVcqHGUy3/8AD94hvCuRH19dNON4as9RyvZTIgor8yir7YKcwJeVfRQSTBNTPKLn1kVQOPeL4IENWBd09N5PzI9fDa9cIgKoY+OCpoZAS707Hbtjpttff7cRib3RsJ5wkHmU6QYEzgfvWMnfGuu2PFXu0wbjj438dKbqqQDPp0sxN7cxdJBVF+MBAZhUG022deUgs0XI0Vs5b4yKxZsypqZy9eoXEd/1PEwRneezycHjWDoXjeor2ZYpLXlOg2iz+ijOPdXyi5rZ0CNoIVtVVWizZny22+bo9vcpNFzA8OohQfw2eEhKTC8OjvWbzzjzwfPo+asjP1jfYgvnOXi+Iv6k8JAN/vJvEpkQoGX60GT/fYivQAgbsAu/QRB32iRhEgQmVWbq49DNy9bjA/iKALPhX5Oskr+ZNP2suHOL87HK6RaHM7GHxQzq6gq4pATZazqF/6hTPgb5+gMuyQgigfdHnYFnG9BGoMPqUPGJ1tLhAd4nPP7XsSckSEQ3wT4OF62N6JIGE+uDw8KnwJxWb33w8Thi73gzqHVYgL2wcIRo5AqCU5KVeb/x8/foRbP2TTo+KAhSI5m8xqYCmflVo8xjvSkTvZOFjCdd1E+JlpwiDKhdylQz6BJJkdFhWeH8AgOhomj5oAHrWIIusFpgJCUef8EwA05aR7Aqz0JALRfdkJ1HL+OqlhHXyN9eAvg38pFAYRLOJz8ezd/jGExjJhECFemyeMqw0Z5SNQTg7j+D6cHvWMy2IWX+pkYGT3ieDmWpgNyknf8l98BbHTHsoeTLEEPNtruF8E1oMc81qvcri/NAqDCFa9bIu4uhmhs0UKF2CzwICSMS/XuxiWXQ6FQYmb1qrMJpUmXQBCdIfInHxsN+1X1M/ttzN/oW4EFBHeRgHD8H2ZDCnQ5eHpN/MXyG9k2SS43DaaJwwi6GuNcnVAzvHvsOUD0Sq48XmvkQ6r+FPDoMWjA2F0qws6aCYqc4rnLhpn0D5F/S6mUEJQrg6OpMu+IWXMhGIYQvNMP2+B+WJW6eN1aInKhEFUyrtp5cIyC8sN4wHROkCdHmO7QPvJAMJsqKwZis2GwnBMTwPyqFskvCe5B/BmO5A75ADbkIOT+/gaAtHIEXm3B/tvdvK9DHsPB70+yDrUgVEoCCJDGSiWPi4OvChsid0lBKJ02LU2yvbXEDngdkao9Zi4Fg1BGAo9PR/mqOlmaUWdghugBGJxB9fJB4Fxozr7OFc+7anlyyKEQPNA8mbvdgeUPhph6D7YJAiihu9gcdRf34sfB/RrcIIo4yYAzOOawJjfRlaH2re+hmOYvaHuE2oBHrW9u0/qG2OsgOxojdl1nXICd6ieZyU+KPaurMb8mVAlvBqpIv1LH3moWusPvBpgeXxahiBTn6z2RVEJ6l81CoCoCJKOyJ2+rvkC9PmLygMeCE1PujqJPaJQH4DZxeSoHVRHlYzd0wJ86Xi4DXG6Q8ieYdf6JTl3uJOxLINP8C+oAzobZCWGVn2HULTfh5q2HCBmIfs+k22oy5HFTItJsUFn3YcmDUG0ku03LUf8jpv+jtJ8zPuoYGer4vJmTy/WUpf78O+8I6QQymoHno3dLO/t81wEEh53CNmzccxxkRE0lAJNkSX8K1DOkM2HnYP3IltZSk5penJ6Rl5RyjMwbKv2qenkjCK6z/wm+BwZd09Foxi42qinz8xNzjeZTHNzDz1JDiJyh9H/jipvegrGc1KK8nZllOYVFdZk2wZJLZvxt9xBP3Noa68NYBehLpbKvUA7jTDUOS3Ysl+hqGFcxtmj66GLGyT3ELM5oPRRyZr0QdpWbp7OkDDw9uBrUkrgtuP+f+qcJTXHymxjCEPzuQc6kJsXZmdPTfWwzAaf4djEM1JJ72QiuNeB/6QfJSFBPngYjpJHApOjtlPNifIv0eoigrpDUH6E91np9TNTtfARDKh3nv2Ux6TxsdjI5X4ktCZ/8iH8d4Xfh6SwSYqk99/cE2wzdnKTV4o0VOcVNE3mPx+EDkIZVqaSSnW3KQvt3DB0dQh0MBz2HJUkeVYOLHmMNgVbg0ofab5BW+pYoB7J22mBxZPS/aT/SjI1YGRNLSfnNW01zz1V1owGwnhMS3N2/F1Y6r43pLQr4lCrWL5YVyegdMxTSpJKoAjBztjnNuAoXzIfpGwU6D4oSk2bocHwzXOlp6zx21xuZ6dw67ykkfTBUer6wCiqvBFcwmdGWk0wWlVenfuat9mTtsbmFOdrB6Kj36rB3HJLG0VRlq4CER51L5OjpulzKhhFEV75VrwVSeZsLptVW1tbIRDU5FS4F9Uc80dIVlFt43S38gCW1tQtXsdvtxtml61kSnDMwte52Yem1Ssq9qd6ZjWW1TYJPX+7FtctAtaPGRtRXbcsz6ClfDapDh0t18XE60R3s9DRlheQR33JEBr5CdqJxkNNczGl5xVtLCkuajAKNlkkMyubclqCLixYmluesyCnvFRkSqSgJaeouKRpQZ5R8ynE/0QgGnhF0WXqaTQGhrZbzcHSWglMOwdBt/JvrnHnMj3SHKv4C+Kk9cg7YW7K/P7Kc5/g8fmKTr0s6MdZG8LhIOhevnlKRgvD4wjuUecTLDEr/4pHkL1+9Ddd3doI7s66f0TJVeJuuG2Zy3KVcKDcDX3xDFfknQTIQMRTQS16YjwLREnKv+LnuC3ztK5ubeQ0ZugrmgZlcbktVIoh+ZyVcFAIRvZ5bX4mK6sVWDKhWUNqg+hDlAgbOqmrWxv5E3KJhpQ8pq2Uh5lxKTOeoCCOaCo+IdbHowZc/B4hz1ttEJ1HIBp4S1e3NnIFn4Wh4LTgBGYQjBVn6vOndTgQjii73Rv0J9BMwZ1uFRxvojaITmDi5rbjur418avfganGoV/Lp4GUuBiCNDtBlG62EChYI2gY9C+12BkC41URoFAbRIbtOFO0RVe4FvJjzNmSP+rzsotwUl8Y/f5amtBjx042YU1K6gTtHBYxXCnVQYS5LiM7dIVrIa/gmsBWuVe45GImwXC0Psddbu/E25EdeEOEuOmdqoPoZ0NKiGm6CMlrsmsCSJZ2uh0i10buF5PNFgrjiKC/FDkZX3UQHR1BnbBv6ArXQk7inUjmQZ2VX7q9ZSrIDtNy5iIFmfS9YpPvqoPoozvfRM547u+hnFXoc1rdG42rN+gSU0PvVcreKR4NqoNo0z44SnB4wwld4xrIC2hk7F55U4fnuW0Z/XfBZVXm3imG8IHIsGdCjdKOLtzyjz8/UNKW1exy27KeRJVvSn0QbcVzHQ7rKtcgwr8Dn9GJ7XLefYaZOXVd9fFb6oPoRXy48Hu6ytWX3zyAz+hDOZWzJiZ96Io1hANERrNXugQPmz+NyPqTn+kqV1+uTcLo7L8yWtUvMDx5lwbEXTEgSmItcQiGfT9F5mzyr7rK1Zf3UAJlQvrc4V0ud+TuMhvCA6JprCUzBKtxmKz/7ee6ytUXnGuckOwsVDEDXqhMQ1SAaAtOZLyhq1x9wR7n3TclvjH/X7STcHUYogNEL99DzWfbdZWrLyhhPfT1eYlvtNKEk7IaogREz64d1lPWmsmrKGyZkJiwbmfOTvgqK1pAtAnRrAf2bdJ1rrqcHZaVys1k9qF/azUCR30QGV5AX3PDL3Wdqy6n0I+7V9LIjN0MC43INUQPiN7CINK5jeoL5vxtk1I6awMDyZMMUQSiPbgf/we6zlUXz48rgRzLtLo6XXJ7oM0HvdIcMhDJelh0EScytvl65nwNulfuJzY7vHIwZCA6NSzHbOsiSjwOp2iiTUG/g3CKYH/wSQLlLVc8FTIQvT+ic0G0B5HYqCXxBkO4V8D+0EH0vTVna8WaM6bV1X69yhBlIJIXheoizbEW6XC2MqdruvhYilm3brUhuXUrK5JApDvWoQjxXxaz2tgMTj4s53s9lj3O41IkgUhOFKqLSDkrdptPLDX3XgQzP1z8x9pNYYMoNpJApCcbNZRP0XCiiWAOZ0HeuY54Ag2xCsb+iFwQoQBiYp9e9lBf/gKP2h0f4TvJKf1ygqWbIig0d8hBtxuiEEQn9k2gfgS9AKu+oMEyI4+ucWEiqfkgo2vK2wkd32qIRhBlbftG4dl54RNTZUxMTKUpgu/wt8icDXGQ0toJu53CQxncO9HB1q7Y4FNsJYLIHjIQfTSB2utORR+IVq1xy80lEXyHBzBvlIMe2+MZ6kF0WxL6RJxRE7Eg2jIAzdm9rdEHov1gIHt2BN8hHs87wHHQrgWasp52c65I9lnEgujte+hrPh99IEoDIHoigu/wza/RjOcXA1/rpzotzUlGCdY4YkG04370zpbRCERZ6s22xr0044H7vKmpT2p1I2JBdACBaOSAsp/LWDiTkcJDiVEOopz51WuO1at0saexT7QnEETSrxaxIPo5+pZ3lA18Rwcx2mxkUXSDKIc5J4RMrVLnaic2oDYIVRjsUkH0w1CB6FUYnN19oHAc+jJ0eM//uTv/2DauOoA7UqVYiRwSp3Pj2CSx7Dj+kR9N7Niek4r8aJakzppARgRptrUpCkLq6JYuwBa0TlTqGBQ0JKQyplG2qVKBTUhjIDRAogj+QKD9e+Sd3My+tmnTtClb14KgCN/7cb4f785nn1PZPvWPJne5e/fe5977/nxftqV8IBrx9E7Kasq5nKg0UqBITfz21SK6t0sWIuz1SG48bXBASQUoUFMeELmCLeMMALLqMB24qtFqkZp4Am//tHW2giE6eaA4GUOOaaH201J5QNSYApyi3qPJ60fz6WSRmnj0VhHrv5YqRPuuFWc39D6hFB2IlwdEA7CGrUVef7QHVk1nw0Vq4nkcfHzpkQqG6MJdo1vkomMPD1H9ECySd6gsIJqCyMfkHeSKZARrX9G0g5+S/j1RwRCd38BfyvOGXq8bjki0D37dtWUB0RJsslNpkWhrna0qWhP3E1vusQqG6Fub6h7CPI4gT0/KNMPPRyDmKgeIauECPLfDbXUdWTO082dZQISrmievv27o9Zx8afBFk2mch4mdLQeIInwVW2bHBbg3sDF38+WKheixc3g5O2Co9KIHjqY1MzJwKpooB4gG4XK2uNNtfApL1nfPVyxEL2Mv8ydvG3q7CFTL2nAVc85SVQYQrUKIhna6ja8lkf678X7FQvQ8/k7u/MbIy1X7iWrvikEF+XAZQJSAEO24ff31q8glsHnm0UqF6EUC0Z+MvFwrwKuZyTTGabg+vN7q6qyHfLkraJu0LQ00q9/Yu+xeqI1ExoJdyzogqq7K3L9a5Y2rM+e81UiMhtctopmoGh3ZZlXBC9UaFO2yjmUaFOgbpjS7EZ0MTg2LipOdvokd+Z+rUIgePYBFok++YuTlVjm8mmWkI6Du+oj6fGbzOBKYGgNxYp20TETpZoNQp4/h3aHwiAdqckE04Ddnjlg99dnOzLN9PtjGwzH+un5422kzOsaDxHzEn/Q5aXGG1e5Bn2CXZyyJKQlq3Zk34rC9NXMyRALNPo8zjD88rt2Jn33pa+R46ZvlBNE7t9EbXv2ZEYagvwnYsZ7G9yJHdX20oy7O9G73JGBBdjwYimWpfbBOfAUDgGUhB0Sj6MoUjckIGl844QQYykGUgR70o9Jg6rU6OU7aInGWYaAfcJKTsT50ghQDu5TDnPvW5eywvVlOEJE6wjd/awSiEC9NpzA30JtPd300ov71mkLTQDqCICE319gAkA8zYFZc2jLRGPwbNkJ5thkus4MiM6PssOELcUhLo2LJnle2yC2cHWli5WfBNGotiUtbyyEUfUYE0UPlBNGLeCf0e78yApEd9h9eAA4hJxpNhmmAZ+qitcLXKnQ8J4+2NwvXiAcmoQ3RDJwLAEU5DDMigT9Ig2hSG6IeBggsk1WLEXa73xUHQnP5f/D/8wgiUmY3mTz7gCH6xwOB6K/nkNCXXPuRAYagmTot6MpzrJrrYxR6+vuncXfX+cwxYQkAstqCiwgy4Hfa7U4hQoDt0dbOhqAElVYqh5gbFGrWK2KHI2yMaUI0KEDCmZs6B1cWYzxNAkSTSBIEzonawNjEoh/w70Vm4xMkWP+RioToWWzDWDtiZCLqgabfkDBecCry0WQnf3bw/JHW7oxOFF6KETnVK4cI+Camoo5dme+8xt1JZoEZTYjc8Nmc0vizKDYKjYTD0Wg7lJHBULvHE42Gw2EiB1s5CkQTBPU5axRJ097wQhNDwF+Gj2XNblxJxTE8Zs5CRDI+tl6pSIhO4dVs4zkjEJnhZyhovN1wtgfDygtHCDBMf1AIP+1YQR95KiS51sIk3OK2D4+jURzUhGjXOP9sjmmTPbkGrjCsVfy7OeX91GaiIMBSzoKk3k472SN4kv+M2JhY6fd2xYkLcf/HuKr59acrEaJjxShF7UlDyVj+1VOiurxmEkErGeQhJA7bpeuPW/bHbXgVbNY0NqIgXdmql9Hbof4IJNMYVCPBXh0QhVm4SoL5GXoPuJwQUVn4yK4oIe49bCna+EUFQnSQ6A3XjHiYI5ABkRjSS1ueYOOhWjv7AAAQmElEQVTNUkWITBN1usJqQ4iPKU2IGuBwcz6aLUCmMuqHaA5JPPNqKYY18Hx/h1rLL97Rs54VH6LLDwKii/ewBeMJQy4P3oHf75D3KdulAhGrGLfdEI90jspe2KMS0XZ7JBBq0jgCRz/fJC5YGERuxFCdap7zIahCWlTz6A/iYP215P7Kg+g0jrq7ZCTlDHYxuyL+VQs/kGxCbSZSKG6taOCDOZ40yck9phSIZgEF1C4k07QVBhGaiGQym0Q9RaqZejL9aSJaf6niIDq7QdIzjaSz1EOIJBJMH1TXuFEViGwK/wajaiMUH9BGCMwuTYiwmF8nWVug7J6WGUD1QhRlIbwaGf8dUFxLqbf/KZIg+nbFQXQUO3WSRlaz5jrlVN4B3VJgQS9E1UhrW8nxqC54V79DGyIrmtbEDx+ZTgsO4vwhqoWfBBPSsrYioU41zeUgSVXXSu4rS4gef5hMRC8YgKiX7+K0TBVbhetZXC9ESNtmEmofekNj1NPuaUSGbnF6Bg2iZmQ+FD8cWo8Uy41eiOyUqU1uKUMJj+zuGbX1jGzz/McHCdH6zkP0RVLLfMvIaoa6WObkGEaiaKNeiOxqoT2NU7WJuF/inhAnOFPjiQaRPh6WCe6s3AKpE6Lm/tzBazXYOcMxNnqmyzeuk11kTz5IiD694xA9gUOJtn5ugKE2pFh17u4UHYP1aCB69EK0SIWosSeucJ7lnolMUURw9ilV0N0L+gqDCMW2MNoZLL3/xU4UFnQOUEL/990kO6YdryiI9t1HEG1uGLE0Bv5Dc2bicTcbmYkaJpk0R7l3ToiQNgX8XoluBhhHYRB1oTcKafeDLZWNAZlfUhqU/o5NRclXKgqiUzgKZOuckRB9M2DUD7a9cIi6RNEikskoN0Q4GVewUyWURog8IArJoz7oR5AVfUPjPXIJ6sI/sfx592wFQfQ9kuaxZWSHNI8WQ4qE9jwg6gWA4BNfHQsuhPr6Qnt1QuS1wKmniQg16E6zBUK0JIv6UDva7eKIIv+CXIvBCtrt9ysIoheIA/+KkcDYiHj1oiw93gIhmkWrQ5rZezhrIXTrhMhkg9oYCXCC+iMlobLIEGXmLKcII5CQmsnexRs7XL29v3IgOo11sytGNnKoRopTrEVxIMuP1AapHyLoSuF9spL1sFcvRDMQa7LF0B74Q4/J0HLGTenpjqnFLEWsT2JS2HeLOLufqxiILtwhRiIjYjXM8mA4SkwzdO0zqURhEIUQQ3FpzsWCXohMTZAbJNd3o3HtLhQiNP9xVn09MjvICPs0fSCZh3+Pd+ndevKxMoPoxqsqe1i+hwW9zTMGGDKtAlWHgDOtCNzQDxFS+adlfhP9ECG4UUgTlHgpYWp6IWqH0hmrO6l3RogOl/px3kliW9Hto2UG0frv6K7lP/zrahG2+0S7itF3putB53oLgaijjhqRpB8i1weMEJZvhgJSa8EQjcLGgDw2y57pJCuaJLjllyT/bIseePPdGyUKkVpN4yNYv7/0pJGqMCjCB7RRexKdsxcCUZS+g6h+iHAoIh+f0g4ZGncVDBH2ybD5bLrUi61GEuPS10mo9XX6VPTmR6UJ0fpb9CueuY1Vs+QpI6vZIqexMZodhcHPFADRABqCdvnQ6IdoFCHcZzINsnSxWj9EKGMN2PLpmR5A+RsSR7p2nzoVOf6yXpIQfdStMhFtkfcxEtKIIjhSCypfIxKKegqHaLhwiEwr0F22x1TVDy0FNQYgwq2ZduTRNS6oXqakBs5nsJ9p7WN6GuOP1y+XIETbKuN7XGDIUCmGANCKam1OA7nrQy9EKFNW4ezKYzkzeeCCAkwDMJ2JGmSiF6Jd2N6QVx2aFtgy2Z8cw2aVWyoRIQ9tlx5E6yrF1R//dbIYE5EJ7fisuq1GfVru+tALUQMctXSLAYhwOKJ1BZJCzfWfp8efKCMbA+kc7jNKlMgQ7U2JVHTt/p/pN/ry9o0Sg+jyqyo2ondJXMKaIYkoytGSDk0yA7PY9aEXIpQ9wTAeAxAhB1paYztbtKGELzdEjn6c49+nNiXb5VL3iIUalvdV8vX++wL1RlWfulxiEK176Kf33yQMXTFUOtgG+6lftZiK14IGvTp/OxHaTpEZl4p0fQqI0D5VcfrTBeOxSqGIBNVJTMv2WCDpr2NSuWgU/2hNc7ZupeOFAfJc8u9vEbHobyqU/K+0IFr/gcrgvkFCqz80tLUyck2wGjGtk7AnU+78IWpAMSDAf1h81ZICIpSYOk3d4GhMyJ1X2Yd0DE1TcyM5IcKZcfytrIK26R22WWaFhrFgYjab2GgFSvsGPL6AIxw3711Umb63SwiiG+vfURnaZzewer/18EkjELWmc+X5tKNRSuQPEYlrBmw8MDvTUeUYXR62riJH3bRIkEfbwICm8OiywljVJmwWpKJetGJSnb3RmbB7t7ChAyWN2uFLCz4xeyTQ2xusrfelhZIOSyjewBnp87TVdEcX7Cx9kuOLDpHtDe+p+L1/uF06EG3/ZJeKVH0mSdzJrxlhyLQC+9WvVZgKMZPN+sgjFGQxlY0FGI+NW/7f3rXHNlWF8aELyBQCKAiKiI4NkDiDEHWOTR6z6GRFy+q2qBu4Gli7bowNug0398h06GiVEUB0gskyw8JDMYrGBwkxMb4S/Ws7Hae7dKztbfp0bmKUxLa399HH7d3abrv37vz+WELae+7X8/043+N85zuM0gBG3WsGsUIYjXN654UGSIQqB9nOg/kvYPCVm3h+y5IIK1FC2ip6Z3WQcrbITJa/W4SvH9d2vdHfI6I/XGapljQDUMkyaXucvCHR72zHSalfMRrbxcH3zuU+5kOk3IxroyBR6rJBlvKSjYxflkpXroUG4Dv8n7DeF7QubNea8F1BtiwOV++yKdxApBXdEO6d9R2kQ+pi6yb71p986U/E4lQnSDHStfsntmtviMz+tZSIm0j9gcHRLKJZ3WMsgdLiQAYa9cE80vf37s8I5AFVnXtX6OuJ1WM7+zWK+/tpK0WtRP5lJaS/0oI5wW2sBsnwcdbLq/TGYFlZjmJ+SJaEGBx7WcT6cYAHJPqs78/ZbPN2hvKqY7xrYimxJxX5S/7WTyTTEolYeQOL3QuKsl5atFo/aCQth95o7N24JkS1i3wtpYy9+tB0VZrPBg5GurjsacLyeM+B68n+RA+xkCgh6ZGlvv35Qa9I3gefXEvZ8s1rX/W17PJZRr3eOPcZ1q02pT/jaLWxVXI98M7VqSfR7IGZbL+glsxVw4682EiUsS05+eFtd0b+0vydD3u/RTm9m3Z6/xmqnxTPYMnbQlKCK5MXLbvNe7p0+9YlBx9JDntMOWP/E/reuaueywj55KCxN+IJeV+u6+mNczyPb112e0qAzDvvD/fYrB0PzXtxjseOz1295OCCoEV437pnF6/a7vtsw6MRricvJbN0VgdbdDzr/QennERHn2L7Adob5HUlsCJBGEjdkrY8bUukm303z1+eFEbljxMbH5zFZCs9j4/n4uB7kpYvT2LZR5vhEXb+So4BasiMI2S9SO+WY1NOoiS2O09+uuQvRQOOngSxgzClWxP5J9ku/1pkAV+MM8kyiSRixWXzCFnSki12Du38L+JOxVRCilERWuOEkqhvAkhUR23e2xRi51Dqaj1HK48pRI2DUkSdwEh0aJgUHYrfmBEnUvUZ/JRO6XeLrGC0WlAkyuogV1GDK0vsHCKaaevv5ql4me4RKkreKyQS/Uxu3luwStEvREQ10b/7+Crf5zeoDnzlucIhkY4qRLPrRM+hBYQxe4a/En7rItWBX5646Oy++JKo6y/y6nLbmVyxcyjtX/24q6InGQ/8QHaHAn9/KRASdVOBGbBlin4hWuJbiPrX8lnGTIw0DSP2LkGQSEUtnlaz+B2iBf0RimJ5g0oqWwTwCgGQSEYVVQOzWvQcupPoWta/j+dySsjqQI9WKnlPovO/kaS32C6LnkP+QyjXbue9oFWUj4H9/d1EkGggfiQ6f4mqzLeXpYqeQ/4041IBiPqD3R/oW3CXitckyvpleIRMEP0m+i2zhGTCmP23XgCy1r9J+hkm/IaWxyTKpk6AA3hTKn6HyF8jv0YQ0p6/QTvXI6d5S6LOM5SYwN4keg7NWN3PVizLS6jIYmVgGrYX8pREJ07RCaKYGucLBKkZKStWrEhZIRiBq+n/4xh3oeAtcSfR9YEXuF4qzTdTpYx4XQICD9NFoxgV6Ru4VHTrwLhI5OQkkdO5+1aOd2ogtWFmcnUhhfES3W6XiWIRxzWqia/v7nNejReJBpzXH+SslWmAtE89jg0ahMnF5y46d207wlUwe/LtPudAPEjkodCBTziFU9OyWR1/IGXxFlf+oh0jqOTc2kx77yOnM1YSXXe+9kISp2RvVBlo0UYvIlXx2S8CDBad4o6hEz9965u+gfVRk2hG3zcHTo5BrtJyBocA8of4HqMxPA/XWJq13HPsqehJtPmOLWORqnCUwW2gQGrie74on2YRsDWO6WBpYtQkGhu+tlMlTxbc3YqUxHt0ljFYZMipjn6kOJGotACD1nGl0xGmHHkFLgttPGw1UQ+0MC4kumLB6bgM++IEUpAwoHMx3FhbkSzKYfY4YydRltw9xEilX8hG2hEKuqwMkxZ1NPT8wtf6+q56U5KeMD66ISrambZ1SP4K0o1w0NTBZBF+IdoOUmmfHl0zc+GePTNPRvP0ebpYzge0XSYw9/qsm9oCASa7Q10/+TI0BDDZ1l6N1CIw5H7lxhjJGdj+4SQLcPosjjM59G4mUorw8AE2xLQlsEg7iS8vrcIDLBmUIIUI06T12HHapkHMpJNN0puz1ABjroP4rkNIHULF17idZpEVM1ubSyfhrXmS/MBVCJfnIV0IF+cuDINATDiNsiTpgW+EOd1IEcJGF8SDaCRXTeDrMtXBFILNWUgLQoesB6PLZokS+SMTdQD+uNxgCKQQVqZBKhADWnOwoMUIlCviv/+Q133EhAVwCNotkjfQ/IsDeeqhIBLZYIdcE9fGQNKSdmwYC1yFTLpSNPkismlV7tFAmwYwWKaOl3fUqSgy2IIsGWZr06KJFxdO/2oPNmoQgvKa4zGvR53fe7yukLGxchSTiRCaIgwG+0aYw3xGV7g3ekOpudiGu2wghJ5lrbloxkWJyiIDCNG3xWw+1SPRjN/RzjtUV3Vp2A1CmAlcZQ2IQuJFdSPAQ5RutZktsLitpEI11ozOYWmluiDdZnE4TEFjWXActHWjsiFxQ1pbHLp0eJNH3j/pSl1NoTaTPSx/Jftck+Li2RzvA2GGsWLmmx+jio9pgExJOWCD1WwGZmuOsrG2RNJaqNFqVVKpVKXVaipb61pqG4t2FTvgsN00xPK4O6flHJrg6WLV5MWYgY1IBsLj9mYEMF8zSI/XZPUaPZ//DNkI5PGNCq4cRnM7nZYjhcfJZuVRIKGAgfOLBgiUNVI0rdMOsroiEB8YDOVqxKBpyyPFkXwAYSwE8jxcIFGhqZzWyNK0KKE5Sh7hsKy5AtVOI3gdpKaWgnxvZGYdswHzONnFbc3dMpQRQmCsSNWttT3tXh8acpkvCNLflSs06DArQjjUyyobWuRFOcVUYGYxj/rvfPC6TsXpyqpmRaEUlUwjcOHwXplKU9EgUbeUNOu+0jWXtKgldRVNh2TZ9WhyhIz/AYcF3gN7y85kAAAAAElFTkSuQmCC;" parent="1" vertex="1">
          <mxGeometry x="153" y="90" width="144" height="60" as="geometry" />
        </mxCell>
        <mxCell id="Z8HmAOv_Kz-zQU-TGzTw-8" style="edgeStyle=orthogonalEdgeStyle;rounded=0;orthogonalLoop=1;jettySize=auto;html=1;" parent="1" source="Z8HmAOv_Kz-zQU-TGzTw-5" target="sVx-6X5LhX6Xo08L69X_-16" edge="1">
          <mxGeometry relative="1" as="geometry" />
        </mxCell>
        <mxCell id="Z8HmAOv_Kz-zQU-TGzTw-5" value="Data Feed" style="text;html=1;strokeColor=none;fillColor=none;align=center;verticalAlign=middle;whiteSpace=wrap;rounded=0;" parent="1" vertex="1">
          <mxGeometry x="200" y="210" width="40" height="20" as="geometry" />
        </mxCell>
        <mxCell id="Z8HmAOv_Kz-zQU-TGzTw-9" value="" style="html=1;verticalLabelPosition=bottom;align=center;labelBackgroundColor=#ffffff;verticalAlign=top;strokeWidth=2;strokeColor=#0080F0;shadow=0;dashed=0;shape=mxgraph.ios7.icons.clock;" parent="1" vertex="1">
          <mxGeometry x="170" y="200" width="30" height="30" as="geometry" />
        </mxCell>
        <mxCell id="Z8HmAOv_Kz-zQU-TGzTw-10" value="reports" style="text;html=1;strokeColor=none;fillColor=none;align=center;verticalAlign=middle;whiteSpace=wrap;rounded=0;" parent="1" vertex="1">
          <mxGeometry x="330" y="200" width="40" height="20" as="geometry" />
        </mxCell>
        <mxCell id="Z8HmAOv_Kz-zQU-TGzTw-11" value="Private Link ??" style="text;html=1;strokeColor=none;fillColor=none;align=center;verticalAlign=middle;whiteSpace=wrap;rounded=0;" parent="1" vertex="1">
          <mxGeometry x="310" y="223" width="110" height="20" as="geometry" />
        </mxCell>
        <mxCell id="nH8Mw-2NKMJwbhHw3GR2-11" style="edgeStyle=orthogonalEdgeStyle;rounded=0;orthogonalLoop=1;jettySize=auto;html=1;fontSize=16;" parent="1" source="nH8Mw-2NKMJwbhHw3GR2-4" target="nH8Mw-2NKMJwbhHw3GR2-9" edge="1">
          <mxGeometry relative="1" as="geometry" />
        </mxCell>
        <mxCell id="nH8Mw-2NKMJwbhHw3GR2-4" value="" style="points=[];aspect=fixed;html=1;align=center;shadow=0;dashed=0;image;image=img/lib/allied_telesis/computer_and_terminals/Server_Desktop.svg;" parent="1" vertex="1">
          <mxGeometry x="960" y="514" width="52.07" height="66" as="geometry" />
        </mxCell>
        <mxCell id="nH8Mw-2NKMJwbhHw3GR2-5" value="On-premises" style="text;html=1;strokeColor=none;fillColor=none;align=center;verticalAlign=middle;whiteSpace=wrap;rounded=0;fontStyle=1;fontSize=16;" parent="1" vertex="1">
          <mxGeometry x="810" y="460" width="100" height="20" as="geometry" />
        </mxCell>
        <mxCell id="nH8Mw-2NKMJwbhHw3GR2-6" value="Integration&lt;br&gt;Runtimes" style="text;html=1;strokeColor=none;fillColor=none;align=center;verticalAlign=middle;whiteSpace=wrap;rounded=0;fontStyle=1" parent="1" vertex="1">
          <mxGeometry x="936.04" y="590" width="100" height="20" as="geometry" />
        </mxCell>
        <mxCell id="4qManxZfzn34yBkkgIPU-6" style="edgeStyle=orthogonalEdgeStyle;rounded=0;orthogonalLoop=1;jettySize=auto;html=1;" parent="1" source="sVx-6X5LhX6Xo08L69X_-18" target="nH8Mw-2NKMJwbhHw3GR2-4" edge="1">
          <mxGeometry relative="1" as="geometry">
            <mxPoint x="980" y="212" as="targetPoint" />
            <Array as="points">
              <mxPoint x="970" y="170" />
            </Array>
          </mxGeometry>
        </mxCell>
        <mxCell id="nH8Mw-2NKMJwbhHw3GR2-9" value="" style="aspect=fixed;html=1;points=[];align=center;image;fontSize=12;image=img/lib/mscae/Database_General.svg;" parent="1" vertex="1">
          <mxGeometry x="740" y="530" width="38" height="50" as="geometry" />
        </mxCell>
        <mxCell id="nH8Mw-2NKMJwbhHw3GR2-10" value="Oracle &lt;br&gt;Database" style="text;html=1;strokeColor=none;fillColor=none;align=center;verticalAlign=middle;whiteSpace=wrap;rounded=0;fontStyle=1" parent="1" vertex="1">
          <mxGeometry x="709" y="590" width="100" height="20" as="geometry" />
        </mxCell>
        <mxCell id="nH8Mw-2NKMJwbhHw3GR2-34" value="source" style="text;html=1;strokeColor=none;fillColor=none;align=center;verticalAlign=middle;whiteSpace=wrap;rounded=0;rotation=-90;" parent="1" vertex="1">
          <mxGeometry x="570" y="253.5" width="40" height="20" as="geometry" />
        </mxCell>
        <mxCell id="ZXrOGG-doeEAXGYhfk-P-1" value="" style="shape=image;verticalLabelPosition=bottom;verticalAlign=top;imageAspect=0;aspect=fixed;image=data:image/svg+xml,PHN2ZyB4bWxucz0iaHR0cDovL3d3dy53My5vcmcvMjAwMC9zdmciIHZpZXdCb3g9IjAgMCAxOCAxOCI+PGRlZnM+PGxpbmVhckdyYWRpZW50IGlkPSJhIiB4MT0iOSIgeTE9IjE4IiB4Mj0iOSIgZ3JhZGllbnRVbml0cz0idXNlclNwYWNlT25Vc2UiPjxzdG9wIG9mZnNldD0iMCIgc3RvcC1jb2xvcj0iIzAwNzhkNCIvPjxzdG9wIG9mZnNldD0iLjgxNyIgc3RvcC1jb2xvcj0iIzVlYTBlZiIvPjwvbGluZWFyR3JhZGllbnQ+PC9kZWZzPjxwYXRoIGQ9Ik0xMC4wMjMuMTM0SDIuMzYyYS42MDUuNjA1IDAgMDAtLjYwNS42MDZ2MTYuNTJhLjYwNS42MDUgMCAwMC42MDUuNjA2aDEzLjI3NmEuNjA1LjYwNSAwIDAwLjYtLjYwNlY2LjMyN2EuNjA1LjYwNSAwIDAwLS42LS42MDZoLTQuNDA2YS42MDUuNjA1IDAgMDEtLjYtLjYwNVYuNzRhLjYuNiAwIDAwLS42MDktLjYwNnoiIGZpbGw9IiNmZmYiLz48cGF0aCBkPSJNOS43NDMuOTA4djQuMTQ5YTEuNTI0IDEuNTI0IDAgMDAxLjUyIDEuNTIzaDQuMTh2MTAuNTEySDIuNTU3Vi45MDhoNy4xODZNMTAuMDM2IDBIMi4yNjRhLjYxNC42MTQgMCAwMC0uNjE0LjYxNXYxNi43N2EuNjE0LjYxNCAwIDAwLjYxNC42MTVoMTMuNDcyYS42MTQuNjE0IDAgMDAuNjE0LS42MTVWNi4yODZhLjYxNC42MTQgMCAwMC0uNjE0LS42MTRoLTQuNDczYS42MTQuNjE0IDAgMDEtLjYxMy0uNjE1Vi42MTVBLjYxNC42MTQgMCAwMDEwLjAzNiAweiIgZmlsbD0idXJsKCNhKSIvPjxwYXRoIGQ9Ik0xNi4xMTYgNS43OTRMMTAuNDM4LjEzNHY0LjYxMmExLjA0MSAxLjA0MSAwIDAwMS4wMzUgMS4wNDh6IiBmaWxsPSIjMDA3OGQ0Ii8+PHJlY3QgeD0iNCIgeT0iOC4xOTYiIHdpZHRoPSI5Ljk5OSIgaGVpZ2h0PSIxLjM0MSIgcng9Ii42MDMiIGZpbGw9IiM1ZWEwZWYiLz48cmVjdCB4PSI0IiB5PSIxMC41OTkiIHdpZHRoPSI5Ljk5OSIgaGVpZ2h0PSIxLjM0MSIgcng9Ii42MDMiIGZpbGw9IiM1ZWEwZWYiLz48cmVjdCB4PSI0IiB5PSIxMy4wMDIiIHdpZHRoPSI2LjMwMiIgaGVpZ2h0PSIxLjM0MSIgcng9Ii42MDMiIGZpbGw9IiM1ZWEwZWYiLz48L3N2Zz4=" vertex="1" parent="1">
          <mxGeometry x="375" y="180" width="30" height="30" as="geometry" />
        </mxCell>
        <mxCell id="ZXrOGG-doeEAXGYhfk-P-2" value="" style="shape=image;verticalLabelPosition=bottom;verticalAlign=top;imageAspect=0;aspect=fixed;image=data:image/svg+xml,PHN2ZyB4bWxucz0iaHR0cDovL3d3dy53My5vcmcvMjAwMC9zdmciIHZpZXdCb3g9IjAgMCAxOCAxOCI+PGRlZnM+PGxpbmVhckdyYWRpZW50IGlkPSJhIiB4MT0iOSIgeTE9IjE4IiB4Mj0iOSIgZ3JhZGllbnRVbml0cz0idXNlclNwYWNlT25Vc2UiPjxzdG9wIG9mZnNldD0iMCIgc3RvcC1jb2xvcj0iIzAwNzhkNCIvPjxzdG9wIG9mZnNldD0iLjgxNyIgc3RvcC1jb2xvcj0iIzVlYTBlZiIvPjwvbGluZWFyR3JhZGllbnQ+PC9kZWZzPjxwYXRoIGQ9Ik0xMC4wMjMuMTM0SDIuMzYyYS42MDUuNjA1IDAgMDAtLjYwNS42MDZ2MTYuNTJhLjYwNS42MDUgMCAwMC42MDUuNjA2aDEzLjI3NmEuNjA1LjYwNSAwIDAwLjYtLjYwNlY2LjMyN2EuNjA1LjYwNSAwIDAwLS42LS42MDZoLTQuNDA2YS42MDUuNjA1IDAgMDEtLjYtLjYwNVYuNzRhLjYuNiAwIDAwLS42MDktLjYwNnoiIGZpbGw9IiNmZmYiLz48cGF0aCBkPSJNOS43NDMuOTA4djQuMTQ5YTEuNTI0IDEuNTI0IDAgMDAxLjUyIDEuNTIzaDQuMTh2MTAuNTEySDIuNTU3Vi45MDhoNy4xODZNMTAuMDM2IDBIMi4yNjRhLjYxNC42MTQgMCAwMC0uNjE0LjYxNXYxNi43N2EuNjE0LjYxNCAwIDAwLjYxNC42MTVoMTMuNDcyYS42MTQuNjE0IDAgMDAuNjE0LS42MTVWNi4yODZhLjYxNC42MTQgMCAwMC0uNjE0LS42MTRoLTQuNDczYS42MTQuNjE0IDAgMDEtLjYxMy0uNjE1Vi42MTVBLjYxNC42MTQgMCAwMDEwLjAzNiAweiIgZmlsbD0idXJsKCNhKSIvPjxwYXRoIGQ9Ik0xNi4xMTYgNS43OTRMMTAuNDM4LjEzNHY0LjYxMmExLjA0MSAxLjA0MSAwIDAwMS4wMzUgMS4wNDh6IiBmaWxsPSIjMDA3OGQ0Ii8+PHJlY3QgeD0iNCIgeT0iOC4xOTYiIHdpZHRoPSI5Ljk5OSIgaGVpZ2h0PSIxLjM0MSIgcng9Ii42MDMiIGZpbGw9IiM1ZWEwZWYiLz48cmVjdCB4PSI0IiB5PSIxMC41OTkiIHdpZHRoPSI5Ljk5OSIgaGVpZ2h0PSIxLjM0MSIgcng9Ii42MDMiIGZpbGw9IiM1ZWEwZWYiLz48cmVjdCB4PSI0IiB5PSIxMy4wMDIiIHdpZHRoPSI2LjMwMiIgaGVpZ2h0PSIxLjM0MSIgcng9Ii42MDMiIGZpbGw9IiM1ZWEwZWYiLz48L3N2Zz4=" vertex="1" parent="1">
          <mxGeometry x="380" y="170" width="30" height="30" as="geometry" />
        </mxCell>
        <mxCell id="ZXrOGG-doeEAXGYhfk-P-3" value="" style="shape=image;verticalLabelPosition=bottom;verticalAlign=top;imageAspect=0;aspect=fixed;image=data:image/svg+xml,PHN2ZyB4bWxucz0iaHR0cDovL3d3dy53My5vcmcvMjAwMC9zdmciIHZpZXdCb3g9IjAgMCAxOCAxOCI+PGRlZnM+PGxpbmVhckdyYWRpZW50IGlkPSJhIiB4MT0iOSIgeTE9IjE4IiB4Mj0iOSIgZ3JhZGllbnRVbml0cz0idXNlclNwYWNlT25Vc2UiPjxzdG9wIG9mZnNldD0iMCIgc3RvcC1jb2xvcj0iIzAwNzhkNCIvPjxzdG9wIG9mZnNldD0iLjgxNyIgc3RvcC1jb2xvcj0iIzVlYTBlZiIvPjwvbGluZWFyR3JhZGllbnQ+PC9kZWZzPjxwYXRoIGQ9Ik0xMC4wMjMuMTM0SDIuMzYyYS42MDUuNjA1IDAgMDAtLjYwNS42MDZ2MTYuNTJhLjYwNS42MDUgMCAwMC42MDUuNjA2aDEzLjI3NmEuNjA1LjYwNSAwIDAwLjYtLjYwNlY2LjMyN2EuNjA1LjYwNSAwIDAwLS42LS42MDZoLTQuNDA2YS42MDUuNjA1IDAgMDEtLjYtLjYwNVYuNzRhLjYuNiAwIDAwLS42MDktLjYwNnoiIGZpbGw9IiNmZmYiLz48cGF0aCBkPSJNOS43NDMuOTA4djQuMTQ5YTEuNTI0IDEuNTI0IDAgMDAxLjUyIDEuNTIzaDQuMTh2MTAuNTEySDIuNTU3Vi45MDhoNy4xODZNMTAuMDM2IDBIMi4yNjRhLjYxNC42MTQgMCAwMC0uNjE0LjYxNXYxNi43N2EuNjE0LjYxNCAwIDAwLjYxNC42MTVoMTMuNDcyYS42MTQuNjE0IDAgMDAuNjE0LS42MTVWNi4yODZhLjYxNC42MTQgMCAwMC0uNjE0LS42MTRoLTQuNDczYS42MTQuNjE0IDAgMDEtLjYxMy0uNjE1Vi42MTVBLjYxNC42MTQgMCAwMDEwLjAzNiAweiIgZmlsbD0idXJsKCNhKSIvPjxwYXRoIGQ9Ik0xNi4xMTYgNS43OTRMMTAuNDM4LjEzNHY0LjYxMmExLjA0MSAxLjA0MSAwIDAwMS4wMzUgMS4wNDh6IiBmaWxsPSIjMDA3OGQ0Ii8+PHJlY3QgeD0iNCIgeT0iOC4xOTYiIHdpZHRoPSI5Ljk5OSIgaGVpZ2h0PSIxLjM0MSIgcng9Ii42MDMiIGZpbGw9IiM1ZWEwZWYiLz48cmVjdCB4PSI0IiB5PSIxMC41OTkiIHdpZHRoPSI5Ljk5OSIgaGVpZ2h0PSIxLjM0MSIgcng9Ii42MDMiIGZpbGw9IiM1ZWEwZWYiLz48cmVjdCB4PSI0IiB5PSIxMy4wMDIiIHdpZHRoPSI2LjMwMiIgaGVpZ2h0PSIxLjM0MSIgcng9Ii42MDMiIGZpbGw9IiM1ZWEwZWYiLz48L3N2Zz4=" vertex="1" parent="1">
          <mxGeometry x="390" y="165" width="30" height="30" as="geometry" />
        </mxCell>
      </root>
    </mxGraphModel>
  </diagram>
</mxfile>
